<svg xmlns="http://www.w3.org/2000/svg" width="1400" height="420" viewBox="0 0 1400 420">
<defs><linearGradient id="g" x1="0" y1="0" x2="1" y2="1"><stop offset="0" stop-color="#070b1d"/><stop offset=".55" stop-color="#111b3f"/><stop offset="1" stop-color="#4c1d95"/></linearGradient><radialGradient id="r" cx="75%" cy="20%" r="60%"><stop offset="0" stop-color="#8b5cf6" stop-opacity=".75"/><stop offset="1" stop-color="#000" stop-opacity="0"/></radialGradient></defs>
<rect width="1400" height="420" fill="url(#g)"/><rect width="1400" height="420" fill="url(#r)"/>
<g opacity=".9"><path d="M760 330 870 0" stroke="#7dd3fc" stroke-width="4" opacity=".55"/><path d="M930 330 1030 0" stroke="#c4b5fd" stroke-width="5" opacity=".6"/><path d="M1160 340 1110 0" stroke="#fff" stroke-width="4" opacity=".55"/></g>
<g fill="#050713" opacity=".88"><circle cx="700" cy="365" r="55"/><circle cx="760" cy="355" r="62"/><circle cx="835" cy="360" r="58"/><circle cx="915" cy="352" r="64"/><circle cx="1010" cy="358" r="58"/><circle cx="1110" cy="355" r="66"/><circle cx="1195" cy="365" r="55"/><rect y="350" width="1400" height="90"/></g>
<g stroke="#0b0e1d" stroke-width="16" stroke-linecap="round" opacity=".88"><path d="M890 340 l-35 -110"/><path d="M1015 342 l30 -125"/><path d="M1140 340 l-20 -120"/><path d="M1240 340 l40 -110"/><path d="M785 340 l-70 -95"/></g>
<text x="980" y="145" font-family="Georgia,serif" font-size="62" fill="#fff" opacity=".94" font-style="italic">Music</text><text x="990" y="215" font-family="Georgia,serif" font-size="62" fill="#fff" opacity=".94" font-style="italic">Connects</text><text x="1075" y="285" font-family="Georgia,serif" font-size="62" fill="#fff" opacity=".94" font-style="italic">Us</text>
</svg>