<svg xmlns="http://www.w3.org/2000/svg" width="420" height="560" viewBox="0 0 420 560">
<defs><linearGradient id="g" x1="0" y1="0" x2="1" y2="1"><stop offset="0" stop-color="#050713"/><stop offset=".55" stop-color="#0a1634"/><stop offset="1" stop-color="#111827"/></linearGradient><radialGradient id="a" cx="50%" cy="32%" r="55%"><stop offset="0" stop-color="#2563eb" stop-opacity=".9"/><stop offset="1" stop-color="#000" stop-opacity="0"/></radialGradient></defs><rect width="420" height="560" rx="18" fill="url(#g)"/><rect width="420" height="560" rx="18" fill="url(#a)"/><path d="M210 34 260 118H160Z" fill="none" stroke="#2563eb" stroke-width="8"/><path d="M40 360 C120 250 300 250 380 360" fill="none" stroke="#fff" stroke-width="4" opacity=".7"/><path d="M50 390 C120 300 300 300 370 390" fill="none" stroke="#2563eb" stroke-width="5" opacity=".8"/><g stroke="#fff" opacity=".55" stroke-width="3"><path d="M210 290 80 390"/><path d="M210 290 340 390"/><path d="M210 290 210 425"/></g><g fill="#fff" opacity=".85"><circle cx="110" cy="430" r="3"/><circle cx="140" cy="420" r="3"/><circle cx="180" cy="425" r="3"/><circle cx="220" cy="418" r="3"/><circle cx="260" cy="426" r="3"/><circle cx="300" cy="422" r="3"/></g><text x="210" y="190" text-anchor="middle" font-family="Arial Black, sans-serif" font-size="58" fill="#e5e7eb" stroke="#94a3b8" stroke-width="1.5">무명전설</text><text x="210" y="230" text-anchor="middle" font-family="Arial, sans-serif" font-size="22" fill="#ffffff">전국투어 콘서트 - 대구</text><text x="210" y="465" text-anchor="middle" font-family="Arial, sans-serif" font-size="22" fill="#2563eb">2026.07.18</text><text x="210" y="495" text-anchor="middle" font-family="Arial, sans-serif" font-size="18" fill="#e5e7eb">올림픽공원 올림픽홀</text><text x="210" y="535" text-anchor="middle" font-family="Arial, sans-serif" font-size="12" fill="#cbd5e1">주최/주관 CatchCatch  |  문의 1588-1234</text></svg>